<svg xmlns="http://www.w3.org/2000/svg" viewBox="0 0 645 645"><g fill="#39d130"><circle cx="269.3" cy="3.5" r="3"/><circle cx="340.2" cy="3.5" r="3"/><circle cx="304.8" cy="3.5" r="3"/><circle cx="375.7" cy="3.5" r="3"/><circle cx="198.4" cy="38.9" r="3"/><circle cx="269.3" cy="38.9" r="3"/><circle cx="340.2" cy="38.9" r="3"/><circle cx="411.1" cy="38.9" r="3"/><circle cx="482" cy="38.9" r="3"/><circle cx="163" cy="38.9" r="3"/><circle cx="233.9" cy="38.9" r="3"/><circle cx="304.8" cy="38.9" r="3"/><circle cx="375.7" cy="38.9" r="3"/><circle cx="446.6" cy="38.9" r="3"/><circle cx="127.5" cy="74.4" r="3"/><circle cx="198.4" cy="74.4" r="3"/><circle cx="269.3" cy="74.4" r="3"/><circle cx="163" cy="74.4" r="3"/><circle cx="233.9" cy="74.4" r="3"/><circle cx="304.8" cy="74.4" r="3"/><circle cx="92.1" cy="109.8" r="3"/><circle cx="127.5" cy="109.8" r="3"/><circle cx="198.4" cy="109.8" r="3"/><circle cx="163" cy="109.8" r="3"/><circle cx="233.9" cy="109.8" r="3"/><circle cx="56.6" cy="145.3" r="3"/><circle cx="92.1" cy="145.3" r="3"/><circle cx="127.5" cy="145.3" r="3"/><circle cx="198.4" cy="145.3" r="3"/><circle cx="163" cy="145.3" r="3"/><circle cx="56.6" cy="180.7" r="3"/><circle cx="92.1" cy="180.7" r="3"/><circle cx="127.5" cy="180.7" r="3"/><circle cx="411.1" cy="180.7" r="3"/><circle cx="482" cy="180.7" r="3"/><circle cx="552.9" cy="180.7" r="3"/><circle cx="163" cy="180.7" r="3"/><circle cx="446.6" cy="180.7" r="3"/><circle cx="517.5" cy="180.7" r="3"/><circle cx="588.4" cy="180.7" r="3"/><circle cx="21.2" cy="216.2" r="3"/><circle cx="56.6" cy="216.2" r="3"/><circle cx="92.1" cy="216.2" r="3"/><circle cx="127.5" cy="216.2" r="3"/><circle cx="340.2" cy="216.2" r="3"/><circle cx="411.1" cy="216.2" r="3"/><circle cx="482" cy="216.2" r="3"/><circle cx="552.9" cy="216.2" r="3"/><circle cx="375.7" cy="216.2" r="3"/><circle cx="446.6" cy="216.2" r="3"/><circle cx="517.5" cy="216.2" r="3"/><circle cx="588.4" cy="216.2" r="3"/><circle cx="623.8" cy="216.2" r="3"/><circle cx="21.2" cy="251.6" r="3"/><circle cx="56.6" cy="251.6" r="3"/><circle cx="92.1" cy="251.6" r="3"/><circle cx="340.2" cy="251.6" r="3"/><circle cx="411.1" cy="251.6" r="3"/><circle cx="482" cy="251.6" r="3"/><circle cx="552.9" cy="251.6" r="3"/><circle cx="304.8" cy="251.6" r="3"/><circle cx="375.7" cy="251.6" r="3"/><circle cx="446.6" cy="251.6" r="3"/><circle cx="517.5" cy="251.6" r="3"/><circle cx="588.4" cy="251.6" r="3"/><circle cx="623.8" cy="251.6" r="3"/><circle cx="21.2" cy="287.1" r="3"/><circle cx="56.6" cy="287.1" r="3"/><circle cx="269.3" cy="287.1" r="3"/><circle cx="340.2" cy="287.1" r="3"/><circle cx="411.1" cy="287.1" r="3"/><circle cx="482" cy="287.1" r="3"/><circle cx="552.9" cy="287.1" r="3"/><circle cx="304.8" cy="287.1" r="3"/><circle cx="375.7" cy="287.1" r="3"/><circle cx="446.6" cy="287.1" r="3"/><circle cx="517.5" cy="287.1" r="3"/><circle cx="588.4" cy="287.1" r="3"/><circle cx="623.8" cy="287.1" r="3"/><circle cx="269.3" cy="322.5" r="3"/><circle cx="340.2" cy="322.5" r="3"/><circle cx="411.1" cy="322.5" r="3"/><circle cx="233.9" cy="322.5" r="3"/><circle cx="304.8" cy="322.5" r="3"/><circle cx="375.7" cy="322.5" r="3"/><circle cx="446.6" cy="322.5" r="3"/><circle cx="198.4" cy="357.9" r="3"/><circle cx="269.3" cy="357.9" r="3"/><circle cx="340.2" cy="357.9" r="3"/><circle cx="233.9" cy="357.9" r="3"/><circle cx="304.8" cy="357.9" r="3"/><circle cx="375.7" cy="357.9" r="3"/><circle cx="198.4" cy="393.4" r="3"/><circle cx="269.3" cy="393.4" r="3"/><circle cx="340.2" cy="393.4" r="3"/><circle cx="163" cy="393.4" r="3"/><circle cx="233.9" cy="393.4" r="3"/><circle cx="304.8" cy="393.4" r="3"/><circle cx="127.5" cy="428.8" r="3"/><circle cx="198.4" cy="428.8" r="3"/><circle cx="269.3" cy="428.8" r="3"/><circle cx="163" cy="428.8" r="3"/><circle cx="233.9" cy="428.8" r="3"/><circle cx="304.8" cy="428.8" r="3"/><circle cx="588.4" cy="428.8" r="3"/><circle cx="623.8" cy="428.8" r="3"/><circle cx="56.6" cy="464.3" r="3"/><circle cx="92.1" cy="464.3" r="3"/><circle cx="127.5" cy="464.3" r="3"/><circle cx="198.4" cy="464.3" r="3"/><circle cx="269.3" cy="464.3" r="3"/><circle cx="552.9" cy="464.3" r="3"/><circle cx="163" cy="464.3" r="3"/><circle cx="233.9" cy="464.3" r="3"/><circle cx="517.5" cy="464.3" r="3"/><circle cx="588.4" cy="464.3" r="3"/><circle cx="623.8" cy="464.3" r="3"/><circle cx="56.6" cy="499.7" r="3"/><circle cx="92.1" cy="499.7" r="3"/><circle cx="127.5" cy="499.7" r="3"/><circle cx="198.4" cy="499.7" r="3"/><circle cx="482" cy="499.7" r="3"/><circle cx="552.9" cy="499.7" r="3"/><circle cx="163" cy="499.7" r="3"/><circle cx="233.9" cy="499.7" r="3"/><circle cx="517.5" cy="499.7" r="3"/><circle cx="588.4" cy="499.7" r="3"/><circle cx="92.1" cy="535.2" r="3"/><circle cx="127.5" cy="535.2" r="3"/><circle cx="198.4" cy="535.2" r="3"/><circle cx="482" cy="535.2" r="3"/><circle cx="552.9" cy="535.2" r="3"/><circle cx="163" cy="535.2" r="3"/><circle cx="446.6" cy="535.2" r="3"/><circle cx="517.5" cy="535.2" r="3"/><circle cx="588.4" cy="535.2" r="3"/><circle cx="127.5" cy="570.6" r="3"/><circle cx="411.1" cy="570.6" r="3"/><circle cx="482" cy="570.6" r="3"/><circle cx="552.9" cy="570.6" r="3"/><circle cx="163" cy="570.6" r="3"/><circle cx="446.6" cy="570.6" r="3"/><circle cx="517.5" cy="570.6" r="3"/><circle cx="411.1" cy="606.1" r="3"/><circle cx="482" cy="606.1" r="3"/><circle cx="375.7" cy="606.1" r="3"/><circle cx="446.6" cy="606.1" r="3"/><circle cx="340.2" cy="641.5" r="3"/><circle cx="411.1" cy="641.5" r="3"/><circle cx="304.8" cy="641.5" r="3"/><circle cx="375.7" cy="641.5" r="3"/><circle cx="340.2" cy="74.4" r="3"/><circle cx="269.3" cy="109.8" r="3"/></g></svg>